<?xml version="1.0" encoding="UTF-8"?>
<svg id="Layer_2" data-name="Layer 2" xmlns="http://www.w3.org/2000/svg" viewBox="0 0 261.11 296.32">
  <defs>
    <style>
      .cls-1 {
        fill: #d22730;
      }
    </style>
  </defs>
  <g id="Layer_2-2" data-name="Layer 2">
    <g id="Layer_1-2" data-name="Layer 1-2">
      <g>
        <path class="cls-1" d="m0,204.45V67.97c12.53-7.24,18.8-10.85,31.33-18.09,5-2.89,9.45-3.53,13.33-1.93,3.88,1.61,6.93,5.25,9.13,10.93,2.2,5.69,3.31,13.04,3.31,22.07,0,6.09-.55,12.06-1.65,17.92-1.1,5.86-2.67,11.33-4.7,16.41-2.03,5.09-4.43,9.53-7.19,13.33,6.09,16.76,9.13,25.14,15.22,41.89-7.62,4.4-11.43,6.6-19.05,11-5-15.38-7.49-23.07-12.49-38.45-.56.32-1.1.64-1.63.94-.53.3-1.05.61-1.58.91-2.96,1.71-4.44,2.56-7.4,4.27v45.66c-6.65,3.84-9.98,5.76-16.64,9.6m30.65-89.95c1.82-1.05,3.48-2.8,4.99-5.24,1.5-2.44,2.68-5.28,3.54-8.52s1.29-6.63,1.29-10.18c0-3.14-.44-5.82-1.31-8.02-.88-2.2-2.06-3.67-3.57-4.41-1.51-.74-3.15-.59-4.93.44-5.61,3.24-8.41,4.85-14.01,8.09v35.93c5.6-3.24,8.41-4.85,14.01-8.09"/>
        <path class="cls-1" d="m67.4,165.54V29.06c20.13-11.62,30.2-17.44,50.33-29.06v28.2c-13.48,7.78-20.22,11.67-33.69,19.45v25.79c11.57-6.68,22.6-13,34.17-19.68v26.49c-11.57,6.68-22.6,13-34.17,19.68v27.7c13.67-7.89,20.5-11.84,34.17-19.73v28.3c-20.32,11.73-30.48,17.6-50.8,29.33"/>
        <path class="cls-1" d="m142.91,136.48V0c10.68,6.17,16.02,9.25,26.7,15.42,7.01,4.05,13.18,10.45,18.51,19.22,5.33,8.76,9.47,19.15,12.41,31.15s4.41,24.72,4.41,38.17-1.46,24.6-4.39,33.24c-2.92,8.65-7.04,14.28-12.36,16.9-5.31,2.62-11.46,1.91-18.44-2.11-10.74-6.2-16.11-9.3-26.85-15.5m26.31-13.01c4.23,2.44,7.87,2.95,10.9,1.53,3.04-1.43,5.36-4.65,6.95-9.68,1.6-5.03,2.4-11.66,2.4-19.89s-.78-15.72-2.33-22.67-3.85-12.96-6.9-18.04c-3.05-5.07-6.74-8.86-11.07-11.36-4.44-2.56-6.66-3.84-11.1-6.41v80.08c4.46,2.57,6.69,3.86,11.15,6.43"/>
        <path class="cls-1" d="m214.2,177.64V41.16c18.59,10.73,27.88,16.1,46.47,26.83v28.2c-12.44-7.18-18.67-10.78-31.11-17.96v25.79c10.68,6.17,20.87,11.36,31.55,17.52v26.49c-10.68-6.17-20.87-11.35-31.55-17.52v27.7c12.62,7.28,18.93,10.93,31.55,18.21v28.3c-18.76-10.83-28.14-16.25-46.91-27.08"/>
        <path class="cls-1" d="m10.92,228.08c39.4-22.75,78.8-45.49,118.19-68.24,25.67,14.82,51.34,29.64,77,44.46-9.8,5.66-14.7,8.49-24.51,14.15-20.62-11.9-30.93-17.86-51.55-29.76-10.85,6.26-16.27,9.39-27.11,15.66,17.7,10.22,33.79,21.97,51.49,32.19-9.21,5.32-13.82,7.98-23.03,13.3-17.7-10.22-33.79-21.98-51.49-32.19-17.42,10.06-26.13,15.08-43.54,25.14-10.18-5.88-15.27-8.82-25.45-14.69"/>
        <path class="cls-1" d="m103.66,281.62c39.4-22.75,78.8-45.49,118.19-68.24,10.18,5.88,15.27,8.82,25.45,14.7-39.4,22.75-78.8,45.49-118.19,68.24-10.18-5.88-15.27-8.82-25.45-14.69"/>
        <path class="cls-1" d="m250.37,21.04c-1.97,0-3.78-.47-5.42-1.41s-2.94-2.22-3.89-3.83c-.95-1.61-1.43-3.37-1.43-5.27s.48-3.68,1.43-5.29c.95-1.62,2.25-2.89,3.89-3.83C246.59.47,248.39,0,250.37,0s3.77.47,5.41,1.41c1.64.94,2.94,2.21,3.9,3.83.95,1.61,1.43,3.38,1.43,5.29s-.48,3.65-1.43,5.26c-.95,1.62-2.25,2.89-3.9,3.84-1.64.94-3.45,1.41-5.41,1.41m0-1.43c1.67,0,3.2-.4,4.59-1.19,1.4-.8,2.5-1.88,3.31-3.27.81-1.39,1.21-2.93,1.21-4.62s-.4-3.27-1.21-4.65-1.91-2.47-3.31-3.26c-1.39-.79-2.93-1.19-4.59-1.19s-3.2.4-4.59,1.19c-1.39.79-2.49,1.88-3.3,3.26-.82,1.38-1.22,2.94-1.22,4.65s.41,3.24,1.22,4.63c.81,1.39,1.92,2.48,3.3,3.27,1.39.79,2.92,1.18,4.59,1.18m-4.43-2.42V3.71h5.33c.77,0,1.49.19,2.14.56s1.17.88,1.56,1.52.58,1.35.58,2.13c0,.85-.23,1.62-.68,2.3s-1.06,1.17-1.8,1.49l2.74,5.49h-1.86l-2.52-5.12c-.1.01-.2.02-.31.02h-3.43v5.1h-1.75Zm5.21-6.52c.48,0,.93-.12,1.34-.38.41-.25.74-.59.97-1.01.24-.42.35-.88.35-1.39s-.12-.95-.36-1.38c-.24-.43-.57-.77-.97-1.02-.41-.26-.86-.38-1.35-.38h-3.45v5.55h3.47Z"/>
      </g>
    </g>
  </g>
</svg>